<svg width="50" height="50" viewBox="0 0 50 50" fill="none" xmlns="http://www.w3.org/2000/svg">
<rect width="50" height="50" rx="4" fill="black"/>
<path d="M7.192 18V10.048H4.056V8.2H12.596V10.048H9.46V18H7.192ZM15.9023 12.148H20.6203V13.912H15.9023V12.148ZM16.0703 16.18H21.4043V18H13.8163V8.2H21.2223V10.02H16.0703V16.18ZM25.2389 15.76L25.1129 13.142L29.8029 8.2H32.3229L28.0949 12.75L26.8349 14.094L25.2389 15.76ZM23.2089 18V8.2H25.4629V18H23.2089ZM29.9149 18L26.4289 13.73L27.9129 12.12L32.5609 18H29.9149ZM33.2988 19.26V18H40.2988V19.26H33.2988ZM5.162 42V32.2H9.95C11.182 32.2 12.106 32.4333 12.722 32.9C13.3473 33.3667 13.66 33.9827 13.66 34.748C13.66 35.2613 13.534 35.7093 13.282 36.092C13.03 36.4653 12.6847 36.7547 12.246 36.96C11.8073 37.1653 11.3033 37.268 10.734 37.268L11 36.694C11.616 36.694 12.162 36.7967 12.638 37.002C13.114 37.198 13.4827 37.492 13.744 37.884C14.0147 38.276 14.15 38.7567 14.15 39.326C14.15 40.166 13.8187 40.824 13.156 41.3C12.4933 41.7667 11.518 42 10.23 42H5.162ZM7.416 40.292H10.062C10.65 40.292 11.0933 40.1987 11.392 40.012C11.7 39.816 11.854 39.508 11.854 39.088C11.854 38.6773 11.7 38.374 11.392 38.178C11.0933 37.9727 10.65 37.87 10.062 37.87H7.248V36.218H9.67C10.2207 36.218 10.6407 36.1247 10.93 35.938C11.2287 35.742 11.378 35.448 11.378 35.056C11.378 34.6733 11.2287 34.3887 10.93 34.202C10.6407 34.006 10.2207 33.908 9.67 33.908H7.416V40.292ZM15.8671 42V32.2H18.1351V40.152H23.0491V42H15.8671ZM28.9122 42.168C28.1376 42.168 27.4189 42.042 26.7562 41.79C26.1029 41.538 25.5336 41.1833 25.0482 40.726C24.5722 40.2687 24.1989 39.732 23.9282 39.116C23.6669 38.5 23.5362 37.828 23.5362 37.1C23.5362 36.372 23.6669 35.7 23.9282 35.084C24.1989 34.468 24.5769 33.9313 25.0622 33.474C25.5476 33.0167 26.1169 32.662 26.7702 32.41C27.4236 32.158 28.1329 32.032 28.8982 32.032C29.6729 32.032 30.3822 32.158 31.0262 32.41C31.6796 32.662 32.2442 33.0167 32.7202 33.474C33.2056 33.9313 33.5836 34.468 33.8542 35.084C34.1249 35.6907 34.2602 36.3627 34.2602 37.1C34.2602 37.828 34.1249 38.5047 33.8542 39.13C33.5836 39.746 33.2056 40.2827 32.7202 40.74C32.2442 41.188 31.6796 41.538 31.0262 41.79C30.3822 42.042 29.6776 42.168 28.9122 42.168ZM28.8982 40.236C29.3369 40.236 29.7382 40.1613 30.1022 40.012C30.4756 39.8627 30.8022 39.648 31.0822 39.368C31.3622 39.088 31.5769 38.7567 31.7262 38.374C31.8849 37.9913 31.9642 37.5667 31.9642 37.1C31.9642 36.6333 31.8849 36.2087 31.7262 35.826C31.5769 35.4433 31.3622 35.112 31.0822 34.832C30.8116 34.552 30.4896 34.3373 30.1162 34.188C29.7429 34.0387 29.3369 33.964 28.8982 33.964C28.4596 33.964 28.0536 34.0387 27.6802 34.188C27.3162 34.3373 26.9942 34.552 26.7142 34.832C26.4342 35.112 26.2149 35.4433 26.0562 35.826C25.9069 36.2087 25.8322 36.6333 25.8322 37.1C25.8322 37.5573 25.9069 37.982 26.0562 38.374C26.2149 38.7567 26.4296 39.088 26.7002 39.368C26.9802 39.648 27.3069 39.8627 27.6802 40.012C28.0536 40.1613 28.4596 40.236 28.8982 40.236ZM40.6967 42.168C39.9221 42.168 39.2081 42.0467 38.5547 41.804C37.9107 41.552 37.3461 41.1973 36.8607 40.74C36.3847 40.2827 36.0114 39.746 35.7407 39.13C35.4794 38.514 35.3487 37.8373 35.3487 37.1C35.3487 36.3627 35.4794 35.686 35.7407 35.07C36.0114 34.454 36.3894 33.9173 36.8747 33.46C37.3601 33.0027 37.9294 32.6527 38.5827 32.41C39.2361 32.158 39.9547 32.032 40.7387 32.032C41.6067 32.032 42.3861 32.1767 43.0767 32.466C43.7767 32.7553 44.3647 33.1753 44.8407 33.726L43.3847 35.07C43.0301 34.6967 42.6427 34.4213 42.2227 34.244C41.8027 34.0573 41.3454 33.964 40.8507 33.964C40.3747 33.964 39.9407 34.0387 39.5487 34.188C39.1567 34.3373 38.8161 34.552 38.5267 34.832C38.2467 35.112 38.0274 35.4433 37.8687 35.826C37.7194 36.2087 37.6447 36.6333 37.6447 37.1C37.6447 37.5573 37.7194 37.9773 37.8687 38.36C38.0274 38.7427 38.2467 39.0787 38.5267 39.368C38.8161 39.648 39.1521 39.8627 39.5347 40.012C39.9267 40.1613 40.3561 40.236 40.8227 40.236C41.2707 40.236 41.7047 40.166 42.1247 40.026C42.5541 39.8767 42.9694 39.6293 43.3707 39.284L44.6587 40.922C44.1267 41.3233 43.5061 41.6313 42.7967 41.846C42.0967 42.0607 41.3967 42.168 40.6967 42.168ZM42.5867 40.628V36.946H44.6587V40.922L42.5867 40.628Z" fill="white"/>
</svg>
