<svg width="257" height="257" viewBox="0 0 257 257" fill="none" xmlns="http://www.w3.org/2000/svg">
<path d="M1.00618 134.944C0.220566 113.267 32.0599 95.9614 70.5518 81.3221C72.6666 33.4782 89.717 -4.12483 126.033 1.94401C282.635 28.114 159.022 47.6748 70.5518 81.3221C69.5192 104.68 72.0466 130.48 77.6302 154.829C153.854 130.658 259.02 70.4988 255.525 134.944C252.373 193.072 218.91 235.895 163.244 251.444C121.821 263.014 90.9845 213.067 77.6302 154.829C35.5535 168.172 2.29655 170.548 1.00618 134.944Z" fill="black"/>
<path d="M1.00618 134.944C-1.5851 63.4448 350.77 39.5 126.033 1.94401C29.5809 -14.1742 69.0262 277.761 163.244 251.444C218.91 235.895 252.373 193.072 255.525 134.944C260.95 34.9239 4.6341 235.047 1.00618 134.944Z" stroke="black"/>
</svg>
